<svg xmlns="http://www.w3.org/2000/svg" width="37.936" height="29.5" viewBox="0 0 37.936 29.5">
  <path id="home" d="M18.464,9.907l-12.142,10V30.7a1.054,1.054,0,0,0,1.054,1.054l7.38-.019A1.054,1.054,0,0,0,15.8,30.681v-6.3a1.054,1.054,0,0,1,1.054-1.054h4.215a1.054,1.054,0,0,1,1.054,1.054v6.3a1.054,1.054,0,0,0,1.054,1.057l7.377.02A1.054,1.054,0,0,0,31.611,30.7V19.9L19.471,9.907A.8.8,0,0,0,18.464,9.907Zm19.179,6.8-5.506-4.538V3.044a.79.79,0,0,0-.79-.79H27.659a.79.79,0,0,0-.79.79V7.826l-5.9-4.851a3.161,3.161,0,0,0-4.017,0L.286,16.7A.79.79,0,0,0,.18,17.817L1.86,19.858a.79.79,0,0,0,1.114.107L18.464,7.207a.8.8,0,0,1,1.008,0L34.963,19.965a.79.79,0,0,0,1.113-.105l1.679-2.042a.79.79,0,0,0-.112-1.115Z" transform="translate(0.001 -2.254)" fill="#02b2b2"/>
</svg>
